<?xml version="1.0" standalone="no"?>
<!DOCTYPE svg PUBLIC "-//W3C//DTD SVG 20010904//EN"
 "http://www.w3.org/TR/2001/REC-SVG-20010904/DTD/svg10.dtd">
<svg version="1.0" xmlns="http://www.w3.org/2000/svg"
 width="996.000000pt" height="996.000000pt" viewBox="0 0 996.000000 996.000000"
 preserveAspectRatio="xMidYMid meet">
<metadata>
Created by potrace 1.14, written by Peter Selinger 2001-2017
</metadata>
<g transform="translate(0.000000,996.000000) scale(0.100000,-0.100000)"
fill="#000000" stroke="none">
<path d="M4749 9186 c-2 -2 -47 -7 -99 -10 -183 -12 -358 -38 -610 -91 -349
-74 -794 -248 -1155 -453 -143 -81 -505 -328 -545 -372 -3 -3 -32 -27 -65 -55
-141 -117 -331 -303 -457 -445 -161 -184 -378 -484 -476 -660 -16 -30 -46 -83
-65 -117 -136 -240 -300 -655 -373 -943 -25 -99 -74 -333 -79 -377 -3 -32 -8
-65 -10 -73 -6 -20 -20 -140 -34 -295 -9 -91 -7 -633 2 -670 3 -11 8 -52 11
-90 4 -39 8 -80 10 -90 2 -11 7 -42 10 -70 40 -308 166 -765 285 -1029 12 -25
31 -67 42 -93 81 -183 215 -429 304 -558 25 -36 45 -68 45 -71 0 -6 164 -228
199 -270 14 -17 35 -42 45 -55 92 -116 328 -359 461 -476 96 -84 273 -225 344
-273 29 -19 64 -45 79 -56 44 -34 318 -197 432 -256 295 -153 749 -319 1000
-364 14 -3 41 -9 60 -14 19 -5 51 -11 70 -14 19 -3 46 -8 60 -11 14 -3 45 -8
70 -11 25 -3 52 -8 61 -9 9 -2 40 -6 70 -10 30 -4 65 -9 79 -10 203 -27 699
-27 915 0 17 2 56 7 89 10 32 4 68 8 80 10 11 2 64 11 116 20 734 125 1460
475 2039 984 104 91 324 311 393 393 24 28 59 70 78 92 19 23 62 78 95 121 33
44 63 82 66 85 18 15 207 314 266 420 234 424 399 890 473 1340 14 84 20 131
26 180 3 25 7 56 9 69 27 159 27 721 0 921 -3 19 -7 60 -10 90 -4 30 -8 62
-10 70 -2 8 -7 35 -10 60 -9 68 -44 239 -60 293 -8 26 -12 47 -10 47 3 0 0 11
-5 25 -5 14 -12 36 -14 48 -18 88 -122 392 -185 539 -105 247 -214 452 -347
653 -32 50 -61 94 -63 99 -2 5 -9 16 -16 25 -8 9 -54 70 -103 137 -180 240
-424 494 -672 700 -100 83 -236 186 -267 202 -12 7 -27 18 -35 25 -21 21 -263
169 -373 229 -112 60 -238 122 -335 163 -36 15 -78 33 -95 41 -106 45 -373
132 -541 174 -178 46 -410 88 -584 105 -30 4 -73 8 -95 11 -49 6 -580 15 -586
10z"/>
</g>
</svg>
